{"title":"Little Caprice - POV","uid":9369289,"size":439979620,"categoryP":"porn","categoryS":"movie_clips","magnet":"?xt=urn:btih:1584b668c2514d63d3fff2a2b36df4e296f28e4c&amp;dn=Little+Caprice+-+POV&amp;tr=udp%3A%2F%2Ftracker.openbittorrent.com%3A80&amp;tr=udp%3A%2F%2Fopen.demonii.com%3A1337&amp;tr=udp%3A%2F%2Ftracker.coppersurfer.tk%3A6969&amp;tr=udp%3A%2F%2Fexodus.desync.com%3A6969","seeders":2,"leechers":0,"uploader":"athklym","files":1,"time":1387493451,"description":"//bayimg.com/LaehJAAFl\nLittle_Caprice_POV.wmv\nFormat : Windows Media\nFile size : 420 MiB\nDuration : 17mn 11s\nOverall bit rate mode : Variable\nOverall bit rate : 3 413 Kbps\nMaximum Overall bit rate : 5 885 Kbps\nEncoded date : UTC 2009-03-10 19:59:06.703\nSfOriginalFPS : 299700\n\nVideo\nID : 2\nFormat : VC-1\nFormat profile : MP@HL\nCodec ID : WMV3\nCodec ID/Info : Windows Media Video 9\nCodec ID/Hint : WMV3\nDescription of the codec : Windows Media Video 9 - Professional\nDuration : 17mn 11s\nBit rate mode : Variable\nBit rate : 3 329 Kbps\nWidth : 1 000 pixels\nHeight : 564 pixels\nDisplay aspect ratio : 16:9\nFrame rate : 29.970 fps\nBit depth : 8 bits\nScan type : Progressive\nCompression mode : Lossy\nBits/(Pixel*Frame) : 0.197\nStream size : 409 MiB (98%)\nLanguage : Russian\n\nAudio\nID : 1\nFormat : WMA\nFormat version : Version 2\nCodec ID : 161\nCodec ID/Info : Windows Media Audio\nDescription of the codec : Windows Media Audio 9.1 - 64 kbps, 44 kHz, stereo (A/V) 1-pass CBR\nDuration : 17mn 11s\nBit rate mode : Constant\nBit rate : 64.0 Kbps\nChannel(s) : 2 channels\nSampling rate : 44.1 KHz\nBit depth : 16 bits\nStream size : 7.87 MiB (2%)\nLanguage : Russian","torrent":{"xt":"urn:btih:1584b668c2514d63d3fff2a2b36df4e296f28e4c","amp;dn":"Little+Caprice+-+POV","amp;tr":["udp%3A%2F%2Ftracker.openbittorrent.com%3A80","udp%3A%2F%2Fopen.demonii.com%3A1337","udp%3A%2F%2Ftracker.coppersurfer.tk%3A6969","udp%3A%2F%2Fexodus.desync.com%3A6969"],"infoHash":"1584b668c2514d63d3fff2a2b36df4e296f28e4c","infoHashBuffer":{"type":"Buffer","data":[21,132,182,104,194,81,77,99,211,255,242,162,179,109,244,226,150,242,142,76]},"announce":[],"urlList":[]}}